<svg xmlns="http://www.w3.org/2000/svg" width="460" height="210" viewBox="0 0 460 210" role="img" aria-label="SAPIO">
  <rect x="1" y="1" width="458" height="208" rx="22" fill="#fbfbf9" stroke="#e0e0da" stroke-width="2"/>
  <g fill="#1b1b1f" shape-rendering="crispEdges"><rect x="68" y="52" width="12" height="12"/><rect x="80" y="52" width="12" height="12"/><rect x="92" y="52" width="12" height="12"/><rect x="104" y="52" width="12" height="12"/><rect x="56" y="64" width="12" height="12"/><rect x="56" y="76" width="12" height="12"/><rect x="68" y="88" width="12" height="12"/><rect x="80" y="88" width="12" height="12"/><rect x="92" y="88" width="12" height="12"/><rect x="104" y="100" width="12" height="12"/><rect x="104" y="112" width="12" height="12"/><rect x="56" y="124" width="12" height="12"/><rect x="68" y="124" width="12" height="12"/><rect x="80" y="124" width="12" height="12"/><rect x="92" y="124" width="12" height="12"/><rect x="140" y="52" width="12" height="12"/><rect x="152" y="52" width="12" height="12"/><rect x="164" y="52" width="12" height="12"/><rect x="128" y="64" width="12" height="12"/><rect x="176" y="64" width="12" height="12"/><rect x="128" y="76" width="12" height="12"/><rect x="176" y="76" width="12" height="12"/><rect x="128" y="88" width="12" height="12"/><rect x="140" y="88" width="12" height="12"/><rect x="152" y="88" width="12" height="12"/><rect x="164" y="88" width="12" height="12"/><rect x="176" y="88" width="12" height="12"/><rect x="128" y="100" width="12" height="12"/><rect x="176" y="100" width="12" height="12"/><rect x="128" y="112" width="12" height="12"/><rect x="176" y="112" width="12" height="12"/><rect x="128" y="124" width="12" height="12"/><rect x="176" y="124" width="12" height="12"/><rect x="200" y="52" width="12" height="12"/><rect x="212" y="52" width="12" height="12"/><rect x="224" y="52" width="12" height="12"/><rect x="236" y="52" width="12" height="12"/><rect x="200" y="64" width="12" height="12"/><rect x="248" y="64" width="12" height="12"/><rect x="200" y="76" width="12" height="12"/><rect x="248" y="76" width="12" height="12"/><rect x="200" y="88" width="12" height="12"/><rect x="212" y="88" width="12" height="12"/><rect x="224" y="88" width="12" height="12"/><rect x="236" y="88" width="12" height="12"/><rect x="200" y="100" width="12" height="12"/><rect x="200" y="112" width="12" height="12"/><rect x="200" y="124" width="12" height="12"/><rect x="272" y="52" width="12" height="12"/><rect x="284" y="52" width="12" height="12"/><rect x="296" y="52" width="12" height="12"/><rect x="308" y="52" width="12" height="12"/><rect x="320" y="52" width="12" height="12"/><rect x="296" y="64" width="12" height="12"/><rect x="296" y="76" width="12" height="12"/><rect x="296" y="88" width="12" height="12"/><rect x="296" y="100" width="12" height="12"/><rect x="296" y="112" width="12" height="12"/><rect x="272" y="124" width="12" height="12"/><rect x="284" y="124" width="12" height="12"/><rect x="296" y="124" width="12" height="12"/><rect x="308" y="124" width="12" height="12"/><rect x="320" y="124" width="12" height="12"/><rect x="356" y="52" width="12" height="12"/><rect x="368" y="52" width="12" height="12"/><rect x="380" y="52" width="12" height="12"/><rect x="344" y="64" width="12" height="12"/><rect x="392" y="64" width="12" height="12"/><rect x="344" y="76" width="12" height="12"/><rect x="392" y="76" width="12" height="12"/><rect x="344" y="88" width="12" height="12"/><rect x="392" y="88" width="12" height="12"/><rect x="344" y="100" width="12" height="12"/><rect x="392" y="100" width="12" height="12"/><rect x="344" y="112" width="12" height="12"/><rect x="392" y="112" width="12" height="12"/><rect x="356" y="124" width="12" height="12"/><rect x="368" y="124" width="12" height="12"/><rect x="380" y="124" width="12" height="12"/></g>
  <text x="230" y="166" text-anchor="middle" dominant-baseline="hanging"
        font-family="Segoe UI, system-ui, -apple-system, Helvetica Neue, Arial, sans-serif"
        font-size="15" letter-spacing="1.2" fill="#6f6f78">Bridge the power of Anki and AI</text>
</svg>
